Coordinates
version=1
nRows=17
nColumns=40
inDegrees=yes

Units are S.I. units (second, meters, Newtons, ...)
Angles are in degrees.

endheader
time	pelvis_tilt	pelvis_list	pelvis_rotation	pelvis_tx	pelvis_ty	pelvis_tz	hip_flexion_r	hip_adduction_r	hip_rotation_r	knee_angle_r	knee_angle_r_beta	ankle_angle_r	subtalar_angle_r	mtp_angle_r	hip_flexion_l	hip_adduction_l	hip_rotation_l	knee_angle_l	knee_angle_l_beta	ankle_angle_l	subtalar_angle_l	mtp_angle_l	lumbar_extension	lumbar_bending	lumbar_rotation	arm_flex_r	arm_add_r	arm_rot_r	elbow_flex_r	pro_sup_r	wrist_flex_r	wrist_dev_r	arm_flex_l	arm_add_l	arm_rot_l	elbow_flex_l	pro_sup_l	wrist_flex_l	wrist_dev_l
     31.11000000	     -5.09263700	     -6.78478944	      1.97468473	      0.99215305	      0.92725348	      0.50741631	     15.02435104	      3.21552309	    -15.71946234	     15.50182134	     15.50182134	      7.23982087	      0.49811362	     -4.87612735	     30.97219852	    -13.32837922	      5.07455253	     69.79139551	     69.79139551	      5.12190315	    -17.91021140	      9.41627090	    -11.33177440	      6.62943189	      2.68616623	     14.48416615	    -22.15344039	     -3.92687399	     68.18751484	     41.14910067	      0.00000000	      0.00000000	      3.05039938	    -10.47606105	     -4.59436196	     57.38486782	     41.70630260	      0.00000000	      0.00000000
     31.12150000	     -5.13499299	     -6.62744102	      2.29117197	      0.98936399	      0.92773571	      0.50757352	     14.51026468	      3.13093950	    -15.62639274	     15.19986416	     15.19986416	      7.46585511	      0.16152654	     -5.03858739	     32.68397559	    -13.08724952	      5.00827928	     68.54333093	     68.54333093	      5.99943134	    -18.29871516	     10.34155323	    -11.45618709	      6.41929926	      2.38846275	     16.83121101	    -22.31365050	     -2.78508620	     71.40100325	     41.23168791	      0.00000000	      0.00000000	      2.72990140	    -10.05313824	     -4.67334284	     53.02492800	     41.97945170	      0.00000000	      0.00000000
     31.13300000	     -5.18735559	     -6.46617148	      2.60382290	      0.98657250	      0.92808922	      0.50768348	     14.10620237	      3.01875895	    -15.50915866	     15.09281728	     15.09281728	      7.83690988	     -0.27681317	     -4.89463120	     34.24994854	    -12.80429176	      4.90084183	     67.05149645	     67.05149645	      6.95212628	    -18.56262575	     11.68166738	    -11.60706662	      6.21897580	      2.25394948	     19.08545556	    -22.49153741	     -2.10390495	     74.75041986	     41.33133349	      0.00000000	      0.00000000	      2.57718464	     -9.55906353	     -4.81244865	     48.71304243	     42.26519469	      0.00000000	      0.00000000
     31.14450000	     -5.21016806	     -6.30111832	      2.93863523	      0.98388794	      0.92843640	      0.50775267	     13.66010438	      2.89605000	    -15.45996097	     14.97131054	     14.97131054	      8.19502726	     -0.63342680	     -4.82619988	     35.57426510	    -12.50309739	      4.74244143	     65.19167278	     65.19167278	      7.57996771	    -18.77254188	     12.28359964	    -11.81128706	      5.99066713	      1.70804957	     21.78272665	    -21.88600306	     -2.05563013	     77.45273988	     41.31532234	      0.00000000	      0.00000000	      1.59778267	     -9.44010951	     -4.66467449	     46.15809295	     42.31696677	      0.00000000	      0.00000000
     31.15600000	     -5.32190124	     -6.16031370	      3.25793721	      0.98118305	      0.92862321	      0.50766357	     13.31027066	      2.80173463	    -15.32174708	     14.83156646	     14.83156646	      8.56853825	     -1.11057936	     -4.56132074	     36.87293821	    -12.13019130	      4.61970905	     63.10430834	     63.10430834	      8.55860613	    -18.81885482	     14.08964421	    -11.86670575	      5.84457548	      1.90628023	     23.86017313	    -22.43703125	     -1.07092792	     80.70117818	     41.37721084	      0.00000000	      0.00000000	      2.23929698	     -8.76072258	     -4.90005018	     40.63107282	     42.57051335	      0.00000000	      0.00000000
     31.16750000	     -5.36265151	     -5.93155667	      3.57082884	      0.97861593	      0.92891875	      0.50746253	     12.86284418	      2.59578465	    -15.26839491	     14.68154610	     14.68154610	      8.90778428	     -1.36586590	     -4.54166748	     37.80722697	    -11.65294268	      4.39356229	     60.53106557	     60.53106557	      8.98801776	    -18.85497573	     14.47452045	    -12.07337901	      5.53339468	      1.61726719	     26.40367240	    -21.87871529	     -1.28394573	     83.03336148	     41.36155368	      0.00000000	      0.00000000	      1.36528822	     -8.63510719	     -4.82949927	     38.84815577	     42.60417388	      0.00000000	      0.00000000
     31.17900000	     -5.56496762	     -5.82762895	      3.91791804	      0.97605708	      0.92891180	      0.50709340	     12.57480435	      2.51038163	    -15.21527979	     14.48301664	     14.48301664	      9.18723745	     -1.71967947	     -4.39937570	     38.80562478	    -11.13720637	      4.41116306	     57.68498687	     57.68498687	      9.42488936	    -18.78272751	     15.02326070	    -12.07344330	      5.41260736	      1.67131756	     28.34403083	    -22.04827946	     -0.74488298	     86.38572087	     41.42407381	      0.00000000	      0.00000000	      1.82261351	     -8.10060000	     -4.98939163	     34.00169176	     42.83628922	      0.00000000	      0.00000000
     31.19050000	     -5.67841698	     -5.56558161	      4.22858101	      0.97375466	      0.92903097	      0.50646155	     12.15423459	      2.24570679	    -15.21595976	     14.28071275	     14.28071275	      9.54365505	     -1.94898076	     -4.43132107	     39.39662629	    -10.43000600	      4.31487980	     54.41998655	     54.41998655	      9.69300957	    -18.62226742	     15.15014917	    -12.10011825	      5.11307345	      1.59247112	     30.66351085	    -21.58720546	     -0.98580565	     88.46532447	     41.41003383	      0.00000000	      0.00000000	      0.97153798	     -7.94645949	     -4.94529188	     32.74149134	     42.86190130	      0.00000000	      0.00000000
     31.20200000	     -5.85183748	     -5.43848113	      4.57405833	      0.97154356	      0.92897550	      0.50568967	     11.76987409	      2.10744161	    -15.29218261	     14.02365881	     14.02365881	      9.80900181	     -2.11799810	     -4.50712240	     39.84464193	     -9.77497979	      4.41686572	     50.75313010	     50.75313010	      9.36135353	    -18.32426668	     13.51412679	    -12.09117436	      5.01343517	      1.80606166	     32.25005415	    -21.59052782	     -0.90587787	     92.32426055	     41.55641877	      0.00000000	      0.00000000	      1.40010573	     -7.47713349	     -5.09208283	     28.53690805	     43.17923927	      0.00000000	      0.00000000
     31.21350000	     -6.03231703	     -5.25128131	      4.89280585	      0.96946756	      0.92891236	      0.50472707	     11.37424659	      1.89454336	    -15.35811932	     13.76557450	     13.76557450	     10.09600604	     -2.24709783	     -4.56984107	     40.11047830	     -8.98285018	      4.64563201	     46.91246831	     46.91246831	      9.53125864	    -17.68388528	     13.31702117	    -12.05773341	      4.80179316	      1.54128846	     34.43198778	    -20.81100317	     -1.00597469	     94.71456455	     41.54976064	      0.00000000	      0.00000000	      0.46123350	     -7.34629216	     -5.04295723	     27.55383707	     43.21830518	      0.00000000	      0.00000000
     31.22500000	     -6.22035219	     -5.13949789	      5.19121312	      0.96763617	      0.92870914	      0.50362377	     10.94105588	      1.74669615	    -15.54434352	     13.44912815	     13.44912815	     10.33317500	     -2.16976309	     -4.85727253	     40.11036169	     -8.35110294	      4.79396158	     42.69231034	     42.69231034	      8.83469193	    -16.78445331	     10.60091621	    -12.00696709	      4.71423058	      1.80758581	     36.08185342	    -20.75533352	     -0.86607035	     98.03828008	     41.71914301	      0.00000000	      0.00000000	      0.11355298	     -7.09097511	     -4.87927066	     25.78575634	     43.44906329	      0.00000000	      0.00000000
     31.23650000	     -6.38582105	     -5.00602437	      5.44144032	      0.96602463	      0.92851850	      0.50245045	     10.48109360	      1.59093976	    -15.59199241	     13.16831956	     13.16831956	     10.64016369	     -2.20909562	     -4.95111267	     39.98152280	     -7.73263279	      4.95539938	     38.59346640	     38.59346640	      9.24112767	    -15.17887323	     10.63905065	    -11.90877897	      4.58400583	      1.72931595	     38.10846408	    -20.02479281	     -0.90670348	     99.99893904	     41.70542314	      0.00000000	      0.00000000	     -0.83745158	     -6.98591570	     -4.79279483	     25.23623006	     43.45655752	      0.00000000	      0.00000000
     31.24800000	     -6.50929047	     -4.96336346	      5.67893744	      0.96473328	      0.92820444	      0.50117673	      9.93368824	      1.53245312	    -15.75239925	     12.82955412	     12.82955412	     10.93111380	     -2.08460321	     -5.09245863	     39.70489057	     -7.25968234	      5.10442678	     34.59783225	     34.59783225	      9.65218167	    -13.30185691	     10.55618405	    -11.84411211	      4.54385616	      1.61282489	     39.99834204	    -19.22069957	     -0.68570202	    102.35102323	     41.67773180	      0.00000000	      0.00000000	     -1.82420571	     -6.85720643	     -4.66282500	     24.78616204	     43.45943899	      0.00000000	      0.00000000
     31.25950000	     -6.65471251	     -4.96223221	      5.85900117	      0.96365984	      0.92771562	      0.49983051	      9.41423458	      1.50961716	    -15.90099997	     12.52638424	     12.52638424	     11.24026520	     -1.93538495	     -5.25712229	     39.34447627	     -6.89884087	      5.13646885	     30.76600330	     30.76600330	     10.01351102	    -11.39698488	     10.71153540	    -11.69162451	      4.56807687	      1.72742529	     41.77137755	    -18.66774511	     -0.49460908	    104.30977619	     41.65230434	      0.00000000	      0.00000000	     -2.75251088	     -6.70902322	     -4.54887819	     24.54808378	     43.45298079	      0.00000000	      0.00000000
     31.27100000	     -6.69224085	     -5.00278962	      6.00245700	      0.96299885	      0.92724051	      0.49842848	      8.73470198	      1.54849120	    -16.06610230	     12.18237379	     12.18237379	     11.57779429	     -1.64379815	     -5.45419812	     38.80497911	     -6.65984565	      5.04304135	     27.28729836	     27.28729836	     10.40344487	     -9.53783670	     10.97973403	    -11.65133166	      4.63132859	      1.78866223	     43.38183223	    -17.93827175	     -0.11999105	    106.51769244	     41.62104438	      0.00000000	      0.00000000	     -3.81562131	     -6.58804129	     -4.40231054	     24.50645587	     43.44101891	      0.00000000	      0.00000000
     31.28250000	     -6.78209924	     -5.08628517	      6.10336305	      0.96254086	      0.92649267	      0.49691246	      8.14740644	      1.61282730	    -16.19069667	     11.92490694	     11.92490694	     11.92125464	     -1.41938598	     -5.62487222	     38.31960243	     -6.48822425	      4.84908997	     24.28584601	     24.28584601	     10.74099366	     -8.04426092	     11.40848841	    -11.46476136	      4.74544270	      2.03135628	     44.91395262	    -17.37234740	      0.15323684	    108.18214738	     41.59847795	      0.00000000	      0.00000000	     -4.78198671	     -6.44137206	     -4.29112147	     24.58250361	     43.42576010	      0.00000000	      0.00000000
     31.29400000	     -6.76852326	     -5.25511071	      6.16323879	      0.96247913	      0.92567992	      0.49543663	      7.36970910	      1.78529390	    -16.50777172	     11.55927401	     11.55927401	     12.35726316	     -0.77481293	     -5.82850176	     37.83892622	     -6.48510012	      4.45544515	     22.03144444	     22.03144444	     11.19469511	     -6.73125809	     12.09597699	    -11.41001552	      4.96445150	      2.05650047	     46.23492086	    -16.66546402	      0.94059281	    110.50075583	     41.62378077	      0.00000000	      0.00000000	     -6.35581223	     -6.40504967	     -3.90547740	     25.84808635	     43.40208890	      0.00000000	      0.00000000
